<svg width="20" height="20" viewBox="0 0 20 20" fill="none" xmlns="http://www.w3.org/2000/svg">
<path fill-rule="evenodd" clip-rule="evenodd" d="M15.8424 4.1756C14.3794 2.71263 12.0075 2.71263 10.5445 4.1756L8.4279 6.29218C6.9598 7.76028 6.96397 10.1418 8.4372 11.6048L8.77639 11.9416C9.07031 12.2334 9.54518 12.2318 9.83705 11.9379C10.1289 11.6439 10.1272 11.1691 9.83333 10.8772L9.49414 10.5404C8.6102 9.66262 8.6077 8.2337 9.48856 7.35284L11.6051 5.23626C12.4823 4.35907 13.9045 4.35907 14.7817 5.23626C15.6605 6.11502 15.6586 7.54035 14.7776 8.41687L13.7256 9.4635C13.432 9.75564 13.4308 10.2305 13.7229 10.5242C14.0151 10.8178 14.4899 10.819 14.7836 10.5269L15.8356 9.48024C17.3049 8.01837 17.308 5.64121 15.8424 4.1756ZM4.17849 15.8456C5.64295 17.31 8.01732 17.31 9.48179 15.8456L11.6031 13.7243C13.0676 12.2598 13.0676 9.88543 11.6031 8.42096L11.2411 8.05895C10.9482 7.76605 10.4733 7.76605 10.1804 8.05895C9.88754 8.35184 9.88754 8.82671 10.1804 9.11961L10.5424 9.48162C11.4211 10.3603 11.4211 11.7849 10.5424 12.6636L8.42113 14.7849C7.54245 15.6636 6.11783 15.6636 5.23915 14.7849C4.36047 13.9062 4.36047 12.4816 5.23915 11.6029L6.30812 10.534C6.60101 10.2411 6.60101 9.7662 6.30812 9.47331C6.01522 9.18042 5.54035 9.18042 5.24746 9.47331L4.17849 10.5423C2.71402 12.0067 2.71402 14.3811 4.17849 15.8456Z" fill="#4A4A4A"/>
</svg>
