<svg width="20" height="20" viewBox="0 0 20 20" fill="none" xmlns="http://www.w3.org/2000/svg">
<g clip-path="url(#clip0_661_71)">
<path d="M10 20C10 18.6167 9.73333 17.3166 9.2 16.1C8.68331 14.8834 7.97499 13.825 7.07499 12.925C6.17499 12.025 5.11669 11.3167 3.9 10.8C2.68333 10.2667 1.38333 10 0 10C1.38333 10 2.68333 9.74166 3.9 9.22501C5.11669 8.69168 6.17499 7.97499 7.07499 7.07499C7.97499 6.17499 8.68331 5.11665 9.2 3.9C9.73333 2.68333 10 1.38333 10 0C10 1.38333 10.2583 2.68333 10.775 3.9C11.3083 5.11665 12.025 6.17499 12.925 7.07499C13.825 7.97499 14.8834 8.69168 16.1 9.22501C17.3166 9.74166 18.6167 10 20 10C18.6167 10 17.3166 10.2667 16.1 10.8C14.8834 11.3167 13.825 12.025 12.925 12.925C12.025 13.825 11.3083 14.8834 10.775 16.1C10.2583 17.3166 10 18.6167 10 20Z" fill="#7367F0"/>
</g>
<defs>
<clipPath id="clip0_661_71">
<rect width="20" height="20" fill="white"/>
</clipPath>
</defs>
</svg>
