<svg width="20" height="20" viewBox="0 0 20 20" fill="none" xmlns="http://www.w3.org/2000/svg">
<path d="M15.7299 12.2043C15.3083 13.2013 14.6489 14.0798 13.8094 14.763C12.9699 15.4463 11.9758 15.9135 10.914 16.1238C9.85218 16.3341 8.75504 16.2811 7.71846 15.9694C6.68189 15.6577 5.73744 15.0968 4.9677 14.3358C4.19796 13.5748 3.62635 12.6369 3.30286 11.6039C2.97936 10.571 2.91383 9.4745 3.11199 8.41037C3.31015 7.34625 3.76596 6.34687 4.43958 5.4996C5.1132 4.65233 5.98412 3.98297 6.97619 3.55005" stroke="#4A4A4A" stroke-width="1.5" stroke-linecap="round" stroke-linejoin="round"/>
<path d="M16.2533 9.62654C16.2533 8.75633 16.0819 7.89464 15.7489 7.09067C15.4159 6.2867 14.9278 5.5562 14.3125 4.94087C13.6971 4.32554 12.9666 3.83743 12.1627 3.50442C11.3587 3.1714 10.497 3 9.6268 3V9.62654H16.2533Z" stroke="#4A4A4A" stroke-width="1.5" stroke-linecap="round" stroke-linejoin="round"/>
</svg>
