<svg width="20" height="20" viewBox="0 0 20 20" fill="none" xmlns="http://www.w3.org/2000/svg">
<path fill-rule="evenodd" clip-rule="evenodd" d="M8.34416 3.69208C9.23548 2.72325 10.7645 2.72325 11.6558 3.69208L15.5097 7.88109C16.1466 8.57328 16.5 9.4795 16.5 10.4201V13.75C16.5 15.2688 15.2688 16.5 13.75 16.5H12C11.1716 16.5 10.5 15.8284 10.5 15V13H9.5V15C9.5 15.8284 8.82843 16.5 8 16.5H6.25C4.73122 16.5 3.5 15.2688 3.5 13.75V10.4201C3.5 9.4795 3.85345 8.57328 4.49026 7.88109L8.34416 3.69208ZM10.5519 4.70766C10.2548 4.38472 9.74516 4.38472 9.44805 4.70766L5.59416 8.89668C5.21207 9.31199 5 9.85572 5 10.4201V13.75C5 14.4403 5.55964 15 6.25 15H8V13C8 12.1716 8.67157 11.5 9.5 11.5H10.5C11.3284 11.5 12 12.1716 12 13V15H13.75C14.4404 15 15 14.4403 15 13.75V10.4201C15 9.85572 14.7879 9.31199 14.4058 8.89668L10.5519 4.70766Z" fill="#4A4A4A"/>
</svg>
