<svg width="20" height="20" viewBox="0 0 20 20" fill="none" xmlns="http://www.w3.org/2000/svg">
<path d="M11.2474 8.73315C11.911 8.78617 12.5883 8.74178 13.2542 8.75463C13.2219 9.66007 12.915 10.6084 12.4576 11.3886C12.3108 11.6389 12.1313 11.8657 11.9803 12.1117C11.5667 12.6435 11.11 13.1789 10.5371 13.5475C10.2576 13.7429 9.97744 13.9415 9.67761 14.1048C8.18377 14.9183 6.31162 15.075 4.68292 14.5946C2.93897 14.0803 1.55357 12.8252 0.697266 11.2475C1.24411 10.7548 1.70712 10.1615 2.26356 9.67906C2.5903 10.7842 3.45363 11.7592 4.45967 12.3073C5.56526 12.9097 6.86686 12.9917 8.06558 12.6378C9.17185 12.3112 10.1711 11.469 10.7168 10.4577C11.0065 9.92083 11.1659 9.33499 11.2474 8.73315Z" fill="#7367F0"/>
<path d="M0.698795 11.2484C0.59967 11.0715 0.516817 10.8798 0.442922 10.6913C-0.192001 9.07199 -0.137297 7.08483 0.56192 5.49687C1.23559 3.96693 2.60908 2.6475 4.17182 2.04378C5.58879 1.51235 7.13922 1.44907 8.59486 1.86325C8.94845 1.96604 9.28072 2.10726 9.61655 2.25593C9.06404 2.75923 8.54887 3.31457 8.01883 3.84235C7.20912 3.60105 6.35005 3.57622 5.52763 3.77034C4.34831 4.05577 3.32115 4.84532 2.69584 5.87772C1.97261 7.07178 1.93737 8.35674 2.26509 9.67996C1.70865 10.1625 1.24564 10.7557 0.698795 11.2484Z" fill="#7367F0"/>
<path d="M14.8371 0C14.9107 0.245645 14.917 0.523998 14.968 0.777101C15.1234 1.54359 15.4486 2.26565 15.9196 2.89044C16.9849 4.30266 18.2795 4.93575 19.9998 5.17573C19.1383 5.27301 18.3596 5.47579 17.6071 5.92C16.4108 6.62611 15.4454 7.81845 15.0625 9.1572C14.9547 9.53433 14.9462 9.9246 14.8474 10.2981L14.8418 10.3185C14.7851 10.0366 14.7717 9.74821 14.7125 9.46569C14.5178 8.5383 14.0317 7.67112 13.3887 6.97988C12.3724 5.88736 11.0815 5.24677 9.58398 5.19188C10.6186 5.06262 11.5557 4.80587 12.4226 4.20077C13.5068 3.444 14.3608 2.30574 14.6808 1.01413C14.7642 0.677574 14.7775 0.339065 14.8371 0Z" fill="#7367F0"/>
<path d="M10.543 13.5481C11.1159 13.1795 11.5726 12.6441 11.9862 12.1123L18.4502 18.5677C18.1233 18.8781 17.8011 19.1934 17.4838 19.5136C17.3256 19.6713 17.1471 19.8272 17.0061 20C14.883 17.8218 12.7041 15.6885 10.543 13.5481Z" fill="#7367F0"/>
</svg>
