<svg width="16" height="14" viewBox="0 0 16 14" fill="none" xmlns="http://www.w3.org/2000/svg">
<path fill-rule="evenodd" clip-rule="evenodd" d="M1 1.75C1 1.33579 1.33579 1 1.75 1H14.25C14.6642 1 15 1.33579 15 1.75C15 2.16421 14.6642 2.5 14.25 2.5H1.75C1.33579 2.5 1 2.16421 1 1.75Z" fill="#4A4A4A"/>
<path fill-rule="evenodd" clip-rule="evenodd" d="M1 7C1 6.58579 1.33579 6.25 1.75 6.25H14.25C14.6642 6.25 15 6.58579 15 7C15 7.41421 14.6642 7.75 14.25 7.75H1.75C1.33579 7.75 1 7.41421 1 7Z" fill="#4A4A4A"/>
<path fill-rule="evenodd" clip-rule="evenodd" d="M1 12.25C1 11.8358 1.33579 11.5 1.75 11.5H14.25C14.6642 11.5 15 11.8358 15 12.25C15 12.6642 14.6642 13 14.25 13H1.75C1.33579 13 1 12.6642 1 12.25Z" fill="#4A4A4A"/>
</svg>
