<svg width="20" height="20" viewBox="0 0 20 20" fill="none" xmlns="http://www.w3.org/2000/svg">
<path d="M11.0865 10.5288C11.7025 10.5288 12.2019 10.0295 12.2019 9.41346C12.2019 8.79745 11.7025 8.29808 11.0865 8.29808C10.4705 8.29808 9.97115 8.79745 9.97115 9.41346C9.97115 10.0295 10.4705 10.5288 11.0865 10.5288Z" fill="#4A4A4A"/>
<path fill-rule="evenodd" clip-rule="evenodd" d="M5.79995 5.79995C5.93541 4.23112 7.25182 3 8.85577 3H14.4327C16.1267 3 17.5 4.37328 17.5 6.06731V11.6442C17.5 13.2482 16.2689 14.5646 14.7 14.7C14.5646 16.2689 13.2482 17.5 11.6442 17.5H6.06731C4.37328 17.5 3 16.1267 3 14.4327V8.85577C3 7.25182 4.23112 5.93541 5.79995 5.79995ZM4.67308 14.4327V13.3414L6.48572 11.1662C6.59069 11.0402 6.78117 11.0316 6.89711 11.1475L10.495 14.7454C10.8217 15.0721 11.3514 15.0721 11.678 14.7454L13.0385 13.385V14.4327C13.0385 15.2027 12.4142 15.8269 11.6442 15.8269H6.06731C5.2973 15.8269 4.67308 15.2027 4.67308 14.4327ZM13.0385 8.85577V11.0189L11.0865 12.9709L8.08016 9.96449C7.26855 9.15288 5.93523 9.21335 5.20043 10.0951L4.67308 10.7279V8.85577C4.67308 8.08576 5.2973 7.46154 6.06731 7.46154H11.6442C12.4142 7.46154 13.0385 8.08576 13.0385 8.85577ZM7.48943 5.78846H11.6442C13.3383 5.78846 14.7115 7.16174 14.7115 8.85577V13.0106C15.3479 12.8814 15.8269 12.3187 15.8269 11.6442V6.06731C15.8269 5.2973 15.2027 4.67308 14.4327 4.67308H8.85577C8.18125 4.67308 7.61861 5.15207 7.48943 5.78846Z" fill="#4A4A4A"/>
</svg>
