<svg width="20" height="20" viewBox="0 0 20 20" fill="none" xmlns="http://www.w3.org/2000/svg">
<path d="M10.982 3.5H9.018C8.205 3.5 7.549 3.5 7.018 3.543C6.472 3.588 5.992 3.683 5.548 3.909C4.842 4.269 4.268 4.842 3.908 5.548C3.682 5.992 3.588 6.472 3.543 7.018C3.5 7.549 3.5 8.205 3.5 9.018V10.982C3.5 11.795 3.5 12.451 3.543 12.982C3.588 13.528 3.683 14.008 3.909 14.452C4.269 15.158 4.842 15.732 5.548 16.092C5.992 16.318 6.472 16.412 7.018 16.457C7.549 16.5 8.205 16.5 9.018 16.5H9.25C9.664 16.5 10 16.164 10 15.75C10 15.336 9.664 15 9.25 15H9.05C8.198 15 7.603 15 7.14 14.962C6.687 14.925 6.426 14.855 6.229 14.755C5.805 14.539 5.461 14.195 5.245 13.771C5.145 13.574 5.075 13.313 5.038 12.859L5.032 12.779L5.076 12.73L6.876 10.571C6.969 10.458 7.14 10.451 7.244 10.555L8.47 11.78C8.763 12.073 9.237 12.073 9.53 11.78C9.823 11.487 9.823 11.013 9.53 10.72L8.305 9.494C7.577 8.766 6.382 8.821 5.723 9.611L5 10.478V9.05C5 8.198 5 7.603 5.038 7.14C5.075 6.687 5.145 6.426 5.245 6.229C5.461 5.805 5.805 5.461 6.229 5.245C6.426 5.145 6.687 5.075 7.141 5.038C7.603 5.001 8.198 5 9.05 5H10.95C11.803 5 12.397 5 12.86 5.038C13.313 5.075 13.574 5.145 13.772 5.245C14.195 5.461 14.539 5.805 14.755 6.229C14.855 6.426 14.925 6.687 14.962 7.141C14.999 7.603 15 8.198 15 9.05V9.25C15 9.664 15.336 10 15.75 10C16.164 10 16.5 9.664 16.5 9.25V9.018C16.5 8.205 16.5 7.549 16.457 7.018C16.412 6.472 16.317 5.992 16.091 5.548C15.731 4.842 15.158 4.268 14.452 3.908C14.008 3.682 13.528 3.588 12.982 3.543C12.451 3.5 11.795 3.5 10.982 3.5Z" fill="#7367F0"/>
<path d="M12.5 9C13.328 9 14 8.328 14 7.5C14 6.672 13.328 6 12.5 6C11.672 6 11 6.672 11 7.5C11 8.328 11.672 9 12.5 9Z" fill="#7367F0"/>
<path fill-rule="evenodd" clip-rule="evenodd" d="M14.7452 10.9131C14.6192 10.0831 13.4292 10.0671 13.2802 10.8931L13.2602 10.9981C13.0602 12.1131 12.1802 12.9811 11.0622 13.1661C10.2442 13.3021 10.2272 14.4721 11.0402 14.6311L11.1152 14.6461C12.2092 14.8601 13.0622 15.7171 13.2722 16.8121L13.2922 16.9201C13.4572 17.7801 14.6882 17.7801 14.8522 16.9201L14.8682 16.8381C15.0802 15.7301 15.9502 14.8651 17.0592 14.6601C17.9022 14.5041 17.8492 13.2841 17.0022 13.1561C15.8452 12.9801 14.9222 12.0701 14.7452 10.9131ZM14.0782 14.9321C14.3412 14.5541 14.6632 14.2221 15.0322 13.9491C14.6412 13.6801 14.2972 13.3471 14.0172 12.9641C13.7572 13.3251 13.4402 13.6441 13.0802 13.9041C13.4682 14.1881 13.8062 14.5351 14.0782 14.9321Z" fill="#7367F0"/>
</svg>
