<svg width="40" height="40" viewBox="0 0 40 40" fill="none" xmlns="http://www.w3.org/2000/svg">
<path d="M19.3026 21.4984V26.8376L18.7778 27.5808H16.3312L18.7778 21.8134L19.3026 21.4984Z" fill="#3CAE98"/>
<path d="M18.7778 21.8134H16.3312V27.5807H18.7778V21.8134Z" fill="#67C5B8"/>
<path d="M23.1463 19.0751V26.8375L22.6537 27.5807H20.1748L22.6537 19.4143L23.1463 19.0751Z" fill="#EEA944"/>
<path d="M20.1748 19.4143L21.0711 19.0751H23.1463L22.6537 19.4143L20.1748 27.5807V19.4143Z" fill="#F5B54C"/>
<path d="M22.6458 19.4143H20.1992V27.5806H22.6458V19.4143Z" fill="#FFD05C"/>
<path d="M27.0223 16.8619V26.8376L26.4893 27.5808H24.0427L26.4893 17.177L27.0223 16.8619Z" fill="#4DACE0"/>
<path d="M24.0427 17.177L24.6322 16.8619H27.0223L26.4893 17.177L24.0427 27.5808V17.177Z" fill="#56BFEB"/>
<path d="M26.4813 17.1771H24.0427V27.5809H26.4813V17.1771Z" fill="#89D6F7"/>
<path d="M35.4437 15.8581C35.4437 15.8581 34.1517 12.2394 34.1517 12.2313C34.1033 12.0779 33.9822 11.9809 33.8288 11.9325C33.7157 11.9082 33.6027 11.8759 33.4815 11.8759C33.3523 11.8759 33.2232 11.8921 33.102 11.9082C32.9971 11.9244 32.8921 11.9325 32.7952 11.9567C32.666 11.9809 32.5368 11.9971 32.3995 12.0132C32.2461 12.0375 32.1008 12.0536 31.9554 12.0859C31.802 12.1021 31.6405 12.1344 31.479 12.1506C31.3175 12.1748 31.156 12.2071 31.0026 12.2233C30.8492 12.2475 30.6958 12.2636 30.5424 12.2879C30.4939 12.304 30.4374 12.304 30.389 12.3121C29.3312 10.9712 27.9908 9.90502 26.4889 9.18612L26.5051 8.91956C26.5131 8.76609 26.5212 8.60454 26.5293 8.43492C26.5374 8.28144 26.5454 8.11989 26.5454 7.96642C26.5454 7.81295 26.5616 7.66755 26.5697 7.51408C26.5697 7.37677 26.5858 7.24753 26.5939 7.11829C26.5939 7.01328 26.602 6.91635 26.602 6.80326C26.602 6.67402 26.6181 6.55286 26.602 6.42362C26.5858 6.30246 26.5454 6.18938 26.5051 6.08437C26.4405 5.94705 26.3274 5.84204 26.174 5.80166L22.4354 4.88082C22.1125 4.80005 21.8702 5.01814 21.7007 5.32509L20.3603 8.2249C19.6013 8.32183 18.8342 8.49954 18.0832 8.77417C17.2192 9.08919 16.4118 9.50114 15.677 9.98579C15.5639 9.92117 15.4428 9.85655 15.3217 9.79193C15.1844 9.71923 15.0391 9.63038 14.8937 9.54961C14.7565 9.46883 14.6273 9.38806 14.4819 9.31536L14.0863 9.08919C13.9732 9.02457 13.8521 8.96803 13.7471 8.89533C13.6583 8.84687 13.5614 8.79032 13.4645 8.74186C13.3596 8.68532 13.2465 8.6207 13.1335 8.57223C13.0204 8.53184 12.8993 8.51569 12.7863 8.50761C12.6328 8.50761 12.4875 8.55608 12.3825 8.66916C12.3825 8.68532 9.87132 11.6013 9.87132 11.6013C9.65331 11.8517 9.74213 12.1667 9.93592 12.4494L11.7527 14.7596C11.1552 16.1489 10.8403 17.6756 10.8564 19.2184C10.7838 19.2587 10.703 19.3072 10.6303 19.3476C10.485 19.4203 10.3477 19.5011 10.2105 19.5738C10.0651 19.6545 9.92784 19.7353 9.7825 19.808C9.65331 19.8807 9.52411 19.9534 9.39492 20.0261C9.28187 20.0907 9.16883 20.1553 9.05578 20.22C8.96696 20.2684 8.87007 20.325 8.78125 20.3734C8.6682 20.4381 8.55516 20.4865 8.45826 20.5754C8.36944 20.6481 8.28869 20.745 8.2241 20.8338C8.14335 20.9631 8.10298 21.1166 8.15142 21.27L9.33032 24.9372C9.42722 25.2522 9.74213 25.3411 10.0893 25.333L12.6328 25.0341C13.8925 26.9808 15.7254 28.4348 17.8087 29.2506C17.8087 29.3556 17.8087 29.4525 17.8248 29.5575C17.8248 29.7191 17.8248 29.8887 17.8329 30.0422C17.8329 30.1956 17.8329 30.3572 17.8329 30.5187C17.8329 30.6722 17.8329 30.8257 17.841 30.9711V31.3588C17.841 31.4638 17.8571 31.5769 17.8571 31.6738C17.8571 31.8031 17.8571 31.9323 17.8894 32.0615C17.9137 32.1746 17.946 32.2877 18.0105 32.3927C18.0832 32.522 18.1963 32.627 18.3578 32.6593L22.1448 33.3297C22.4758 33.3782 22.6938 33.152 22.8473 32.8289L24.0181 29.7837C24.5106 29.6706 25.0113 29.5414 25.4957 29.3637C26.2467 29.0971 26.9492 28.7498 27.6113 28.3298C27.7001 28.3944 27.7809 28.4348 27.8697 28.4832C28.0069 28.5721 28.1523 28.6528 28.2815 28.7417L28.6933 28.984C28.8225 29.0729 28.9436 29.1375 29.0728 29.2183C29.1939 29.291 29.307 29.3637 29.4119 29.4202C29.4927 29.4768 29.5896 29.5414 29.6784 29.5898C29.7834 29.6545 29.8883 29.7191 30.0175 29.7675C30.1306 29.8079 30.2436 29.8322 30.3647 29.8402C30.5262 29.8564 30.6635 29.7999 30.7685 29.6868L33.3604 26.8435C33.5865 26.5931 33.5058 26.2781 33.3281 25.9873L31.6648 23.7579C32.4884 22.0132 32.8517 20.0665 32.6741 18.0956L35.0803 16.6578C35.371 16.4639 35.5567 16.1974 35.4518 15.8824L35.4437 15.8581ZM24.4945 26.5769C20.336 28.0793 15.7497 25.9227 14.2558 21.7628C12.754 17.6109 14.918 13.0229 19.0764 11.5286C23.2348 10.0262 27.8132 12.1829 29.307 16.3508C30.8088 20.5027 28.6448 25.0907 24.4945 26.585V26.5769Z" fill="#7367F0"/>
<path d="M28.2251 4.67108C28.1766 4.78417 28.1766 4.89725 28.2412 4.94572L29.9288 6.38351L27.9102 8.76636L30.6878 11.1169L32.6984 8.73405L34.3941 10.1718C34.4506 10.2203 34.5637 10.2122 34.6605 10.1315C34.7655 10.0588 34.8463 9.94568 34.8624 9.83259L36.009 2.23976C36.0252 2.16706 36.009 2.11052 35.9606 2.07013C35.9121 2.0459 35.8556 2.02975 35.7829 2.05398L28.4754 4.42876C28.3785 4.46107 28.2735 4.558 28.217 4.67108H28.2251Z" fill="#3131AA"/>
<path d="M3.99306 37.9582C3.99306 37.9582 7.04527 33.8549 8.82169 33.1441C8.82169 33.1441 7.9577 33.5237 7.30366 33.3541C7.30366 33.3541 8.77324 30.3412 10.5739 29.695C10.5739 29.695 10.1702 29.3961 9.37077 29.8242C9.37077 29.8242 12.4391 24.8162 13.3677 27.3606C13.3677 27.3606 10.9453 29.3557 12.9155 29.0649C12.9155 29.0649 12.7137 30.1715 12.1888 30.632C12.1888 30.632 13.6261 30.2281 14.5547 29.0649C14.5547 29.0649 15.564 27.7402 15.5075 29.7596C15.5075 29.7596 15.2491 30.9712 13.1578 32.6594C13.1739 32.6433 13.1901 32.619 13.2062 32.6029C13.2466 32.5463 13.2789 32.4979 13.3193 32.4494C13.4242 32.2717 13.4969 32.0698 13.5211 31.8678C13.5211 31.7951 13.5211 31.7224 13.5211 31.6416C13.5211 31.577 13.4969 31.5043 13.4888 31.4397C13.4727 31.3751 13.4888 31.2943 13.4485 31.2459C13.4162 31.2135 13.3758 31.1893 13.3193 31.1893C13.2062 31.1893 13.0932 31.262 13.0124 31.3266C13.0043 31.3347 12.9882 31.3509 12.9801 31.3589C12.9559 31.3993 12.9398 31.4316 12.9155 31.472C12.8671 31.5689 12.8186 31.6659 12.7621 31.7628C12.6814 31.9001 12.6006 32.0455 12.5037 32.1828C12.3907 32.3525 12.2696 32.5221 12.1484 32.6836C12.0031 32.8775 11.8497 33.0552 11.6963 33.2248C11.5186 33.4106 11.341 33.5883 11.1472 33.7418C10.9534 33.9195 10.7354 34.073 10.5093 34.2184C10.2751 34.3638 10.0329 34.4849 9.7745 34.5738C9.56456 34.6626 9.33847 34.7192 9.12045 34.7596C9.12045 34.7596 10.1863 34.2426 11.0341 32.0617C11.0341 32.0617 5.64836 37.7482 3.98499 37.9502L3.99306 37.9582Z" fill="#3131AA"/>
</svg>
