<svg width="179" height="40" viewBox="0 0 179 40" fill="none" xmlns="http://www.w3.org/2000/svg">
<path d="M15.2517 7.83082C14.6761 6.87725 14.0017 6.15758 13.2373 5.6718C12.4639 5.18603 11.4927 4.93414 10.3236 4.93414C9.69415 4.93414 9.07366 5.0331 8.47114 5.249C7.85964 5.4559 7.31108 5.74377 6.82548 6.1216C6.33987 6.50842 5.94419 6.94922 5.64743 7.48897C5.35067 8.01973 5.19779 8.62246 5.19779 9.29715C5.19779 9.89987 5.33268 10.4216 5.61146 10.8804C5.88124 11.3482 6.21397 11.753 6.61864 12.1129C7.0413 12.4637 7.48194 12.7606 7.98554 13.0304C8.48913 13.2823 8.98373 13.5072 9.47833 13.6961L11.6726 14.5507C12.7607 14.9915 13.7768 15.4683 14.7121 15.9991C15.6473 16.5298 16.4567 17.1596 17.1401 17.8972C17.8146 18.6349 18.3452 19.4805 18.7228 20.4431C19.1005 21.4056 19.2894 22.5301 19.2894 23.7985C19.2894 25.1839 19.0466 26.4613 18.543 27.6488C18.0394 28.8272 17.347 29.8528 16.4747 30.6894C15.5844 31.535 14.5502 32.1917 13.3542 32.6685C12.1582 33.1363 10.8722 33.3881 9.48732 33.3881C8.23733 33.3881 7.06828 33.1632 5.98016 32.7314C4.89204 32.2906 3.93881 31.7059 3.11148 30.9413C2.28415 30.1766 1.59171 29.268 1.05215 28.2065C0.512585 27.145 0.161869 26.0115 0 24.7881L3.86687 23.9784C3.86687 24.8151 4.01075 25.6067 4.31651 26.3174C4.61327 27.037 5.04492 27.6578 5.58448 28.1705C6.13304 28.6833 6.76253 29.0881 7.49993 29.376C8.23733 29.6638 9.01071 29.8078 9.82905 29.8078C10.6474 29.8078 11.3938 29.6369 12.0862 29.313C12.7787 28.9892 13.3722 28.5484 13.8848 28.0086C14.3884 27.4688 14.775 26.8301 15.0628 26.1105C15.3416 25.3998 15.4945 24.6261 15.4945 23.8165C15.4945 23.0069 15.3326 22.2872 15.0448 21.6845C14.7481 21.0638 14.3434 20.533 13.8398 20.1012C13.3452 19.6514 12.7697 19.2646 12.1312 18.9228C11.4927 18.5809 10.8542 18.275 10.2067 17.9962L8.08446 17.1056C7.21216 16.7278 6.37584 16.3139 5.5665 15.8641C4.74816 15.4144 4.03773 14.8836 3.42623 14.2809C2.81472 13.6781 2.32912 12.9495 1.96041 12.1398C1.6007 11.3212 1.41186 10.3857 1.41186 9.32414C1.41186 8.07371 1.66365 6.96721 2.16725 5.98666C2.67084 5.00611 3.3363 4.17849 4.18162 3.50379C5.01794 2.8291 5.98016 2.29834 7.07727 1.92951C8.1564 1.56068 9.28049 1.38076 10.4495 1.38076C12.1582 1.38076 13.6959 1.77658 15.0538 2.57722C16.4117 3.37785 17.5088 4.52933 18.3452 6.02264L15.2966 7.85781L15.2517 7.83082Z" fill="#7367F0"/>
<path d="M25.2699 2.0015H41.7626V5.51889H29.1008V14.101H41.3938V17.6094H29.1008V29.2141H41.7626V32.7225H25.2699V2.0015Z" fill="#7367F0"/>
<path d="M99.9095 2.00156H104.918L91.1146 15.8192L105.161 32.7315H99.9905L88.4258 18.4281L86.8701 19.8944V32.7315H83.0392V2.00156H86.8701V15.3245L99.9095 2.00156V2.00156Z" fill="#7367F0"/>
<path d="M113.632 25.022L110.125 32.7225H106.007L120.683 0.706146L135.341 32.7225H131.222L127.715 25.022H113.632V25.022ZM120.683 9.09032L115.224 21.5136H126.132L120.683 9.09032V9.09032Z" fill="#7367F0"/>
<path d="M158.794 32.7225H154.154L145.107 19.7325H143.515V32.7225H139.684V2.00156H144.334C145.691 2.00156 147.076 2.07353 148.488 2.20847C149.909 2.34341 151.222 2.75722 152.445 3.43191C153.74 4.19656 154.738 5.24008 155.431 6.58047C156.123 7.90287 156.474 9.30623 156.474 10.7726C156.474 11.879 156.294 12.9226 155.943 13.9031C155.583 14.8927 155.098 15.7563 154.459 16.5209C153.821 17.2766 153.047 17.9153 152.139 18.4191C151.222 18.9228 150.206 19.2377 149.1 19.3726L158.794 32.7405V32.7225ZM143.524 16.5479H144.756C145.736 16.5479 146.699 16.4849 147.661 16.368C148.623 16.2421 149.495 15.9902 150.269 15.5674C151.042 15.1625 151.672 14.5958 152.157 13.8581C152.643 13.1205 152.895 12.1489 152.895 10.9345C152.895 9.72004 152.634 8.78446 152.13 8.0558C151.609 7.32713 150.952 6.77838 150.152 6.39156C149.343 5.99574 148.452 5.73486 147.463 5.60892C146.465 5.49197 145.494 5.429 144.549 5.429H143.533V16.5569L143.524 16.5479Z" fill="#7367F0"/>
<path d="M171.123 32.7225H167.301V5.50996H160.008V2.00156H178.416V5.51896H171.123V32.7315V32.7225Z" fill="#7367F0"/>
<path d="M58.246 20.9021V26.8484L57.6615 27.676H54.9367L57.6615 21.2529L58.246 20.9021Z" fill="#3CAE98"/>
<path d="M57.6615 21.2529H54.9367V27.676H57.6615V21.2529Z" fill="#67C5B8"/>
<path d="M62.5271 18.203V26.8481L61.9785 27.6757H59.2178L61.9785 18.5808L62.5271 18.203Z" fill="#EEA944"/>
<path d="M59.2178 18.5808L60.216 18.203H62.5271L61.9785 18.5808L59.2178 27.6757V18.5808Z" fill="#F5B54C"/>
<path d="M61.9694 18.5809H59.2446V27.6758H61.9694V18.5809Z" fill="#FFD05C"/>
<path d="M66.843 15.7382V26.8482L66.2495 27.6758H63.5247L66.2495 16.0891L66.843 15.7382Z" fill="#4DACE0"/>
<path d="M63.5247 16.0891L64.1811 15.7382H66.843L66.2495 16.0891L63.5247 27.6758V16.0891Z" fill="#56BFEB"/>
<path d="M66.2405 16.0891H63.5247V27.6758H66.2405V16.0891Z" fill="#89D6F7"/>
<path d="M76.2227 15.3872C76.2227 15.3872 74.7839 11.3571 74.7839 11.3481C74.7299 11.1772 74.595 11.0692 74.4242 11.0152C74.2983 10.9882 74.1724 10.9523 74.0375 10.9523C73.8936 10.9523 73.7497 10.9702 73.6148 10.9882C73.4979 11.0062 73.381 11.0152 73.2731 11.0422C73.1292 11.0692 72.9854 11.0872 72.8325 11.1052C72.6616 11.1322 72.4997 11.1502 72.3379 11.1861C72.167 11.2041 71.9872 11.2401 71.8073 11.2581C71.6275 11.2851 71.4476 11.3211 71.2767 11.3391C71.1059 11.3661 70.935 11.3841 70.7641 11.411C70.7102 11.429 70.6472 11.429 70.5933 11.438C69.4152 9.94472 67.9224 8.75726 66.2498 7.95662L66.2678 7.65976C66.2768 7.48884 66.2858 7.30892 66.2948 7.12001C66.3038 6.94908 66.3128 6.76917 66.3128 6.59824C66.3128 6.42732 66.3307 6.2654 66.3397 6.09447C66.3397 5.94154 66.3577 5.79761 66.3667 5.65368C66.3667 5.53673 66.3757 5.42878 66.3757 5.30284C66.3757 5.1589 66.3937 5.02396 66.3757 4.88003C66.3577 4.74509 66.3127 4.61915 66.2678 4.5022C66.1958 4.34927 66.0699 4.23232 65.8991 4.18735L61.7355 3.16181C61.3757 3.07185 61.106 3.31474 60.9171 3.65659L59.4243 6.88611C58.579 6.99406 57.7247 7.19197 56.8884 7.49783C55.9262 7.84867 55.0269 8.30746 54.2085 8.84722C54.0826 8.77525 53.9478 8.70328 53.8129 8.63132C53.66 8.55035 53.4981 8.4514 53.3363 8.36144C53.1834 8.27148 53.0395 8.18152 52.8776 8.10056L52.437 7.84867C52.3111 7.77671 52.1762 7.71373 52.0593 7.63277C51.9604 7.5788 51.8525 7.51583 51.7445 7.46185C51.6276 7.39888 51.5017 7.32691 51.3758 7.27294C51.2499 7.22796 51.1151 7.20996 50.9892 7.20097C50.8183 7.20097 50.6564 7.25494 50.5395 7.38089C50.5395 7.39888 47.7428 10.6464 47.7428 10.6464C47.5 10.9253 47.5989 11.2761 47.8147 11.591L49.8381 14.1638C49.1726 15.7111 48.8219 17.4113 48.8399 19.1295C48.759 19.1745 48.669 19.2285 48.5881 19.2735C48.4262 19.3544 48.2733 19.4444 48.1205 19.5253C47.9586 19.6153 47.8057 19.7053 47.6439 19.7862C47.5 19.8672 47.3561 19.9481 47.2122 20.0291C47.0863 20.1011 46.9604 20.173 46.8345 20.245C46.7356 20.299 46.6277 20.362 46.5288 20.4159C46.4029 20.4879 46.277 20.5419 46.1691 20.6408C46.0701 20.7218 45.9802 20.8297 45.9083 20.9287C45.8183 21.0726 45.7734 21.2436 45.8273 21.4145L47.1403 25.4986C47.2482 25.8495 47.5989 25.9484 47.9856 25.9394L50.8183 25.6066C52.2212 27.7746 54.2625 29.3938 56.5826 30.3024C56.5826 30.4194 56.5826 30.5273 56.6006 30.6443C56.6006 30.8242 56.6006 31.0131 56.6096 31.184C56.6096 31.3549 56.6096 31.5349 56.6096 31.7148C56.6096 31.8857 56.6096 32.0566 56.6186 32.2185V32.6504C56.6186 32.7673 56.6366 32.8932 56.6366 33.0012C56.6366 33.1451 56.6366 33.2891 56.6726 33.433C56.6995 33.5589 56.7355 33.6849 56.8074 33.8018C56.8884 33.9458 57.0143 34.0627 57.1941 34.0987L61.4117 34.8453C61.7804 34.8993 62.0232 34.6474 62.1941 34.2876L63.498 30.8962C64.0466 30.7702 64.6041 30.6263 65.1437 30.4284C65.98 30.1315 66.7624 29.7447 67.4998 29.2769C67.5987 29.3489 67.6886 29.3938 67.7876 29.4478C67.9404 29.5468 68.1023 29.6367 68.2462 29.7357L68.7048 30.0056C68.8487 30.1045 68.9836 30.1765 69.1275 30.2664C69.2624 30.3474 69.3883 30.4284 69.5052 30.4913C69.5951 30.5543 69.703 30.6263 69.8019 30.6802C69.9188 30.7522 70.0357 30.8242 70.1796 30.8782C70.3055 30.9231 70.4314 30.9501 70.5663 30.9591C70.7462 30.9771 70.899 30.9141 71.0159 30.7882L73.9026 27.6216C74.1544 27.3428 74.0645 26.9919 73.8666 26.6681L72.0141 24.1852C72.9314 22.2421 73.3361 20.0741 73.1382 17.8791L75.8181 16.2778C76.1418 16.0619 76.3486 15.7651 76.2317 15.4142L76.2227 15.3872ZM64.0286 27.3248C59.3973 28.998 54.2895 26.5961 52.6258 21.9632C50.9532 17.3393 53.3632 12.2297 57.9945 10.5654C62.6257 8.8922 67.7246 11.2941 69.3883 15.936C71.0609 20.5599 68.6509 25.6695 64.0286 27.3338V27.3248Z" fill="#7367F0"/>
<path d="M68.1824 2.92802C68.1285 3.05396 68.1285 3.1799 68.2004 3.23388L70.0799 4.83515L67.8317 7.48894L70.9252 10.1067L73.1644 7.45295L75.0529 9.05422C75.1158 9.1082 75.2417 9.0992 75.3496 9.00924C75.4665 8.92828 75.5565 8.80234 75.5745 8.6764L76.8514 0.220256C76.8694 0.139293 76.8514 0.0763213 76.7975 0.0313419C76.7435 0.0043542 76.6806 -0.0136376 76.5996 0.0133501L68.4612 2.65814C68.3533 2.69413 68.2364 2.80208 68.1735 2.92802H68.1824Z" fill="#3131AA"/>
<path d="M41.1955 40C41.1955 40 44.5947 35.4301 46.5731 34.6384C46.5731 34.6384 45.6109 35.0612 44.8825 34.8723C44.8825 34.8723 46.5191 31.5169 48.5245 30.7972C48.5245 30.7972 48.0749 30.4643 47.1846 30.9411C47.1846 30.9411 50.6018 25.3637 51.636 28.1974C51.636 28.1974 48.9382 30.4194 51.1324 30.0955C51.1324 30.0955 50.9076 31.328 50.3231 31.8407C50.3231 31.8407 51.9238 31.3909 52.9579 30.0955C52.9579 30.0955 54.082 28.6202 54.0191 30.8692C54.0191 30.8692 53.7313 32.2185 51.4022 34.0987C51.4202 34.0807 51.4382 34.0537 51.4562 34.0357C51.5011 33.9727 51.5371 33.9188 51.5821 33.8648C51.699 33.6669 51.7799 33.442 51.8069 33.2171C51.8069 33.1361 51.8069 33.0552 51.8069 32.9652C51.8069 32.8932 51.7799 32.8123 51.7709 32.7403C51.7529 32.6683 51.7709 32.5784 51.7259 32.5244C51.69 32.4884 51.645 32.4614 51.5821 32.4614C51.4562 32.4614 51.3303 32.5424 51.2403 32.6144C51.2313 32.6234 51.2133 32.6414 51.2044 32.6504C51.1774 32.6953 51.1594 32.7313 51.1324 32.7763C51.0785 32.8842 51.0245 32.9922 50.9616 33.1001C50.8716 33.2531 50.7817 33.415 50.6738 33.5679C50.5479 33.7568 50.413 33.9458 50.2781 34.1257C50.1162 34.3416 49.9454 34.5395 49.7745 34.7284C49.5767 34.9353 49.3788 35.1332 49.163 35.3041C48.9472 35.5021 48.7044 35.673 48.4526 35.8349C48.1918 35.9968 47.922 36.1318 47.6342 36.2307C47.4004 36.3297 47.1486 36.3926 46.9058 36.4376C46.9058 36.4376 48.0929 35.8619 49.0371 33.433C49.0371 33.433 43.039 39.7661 41.1865 39.991L41.1955 40Z" fill="#3131AA"/>
</svg>
