<svg width="20" height="20" viewBox="0 0 20 20" fill="none" xmlns="http://www.w3.org/2000/svg">
<path d="M16.5 10.25C16.5 9.83579 16.1642 9.5 15.75 9.5C15.3358 9.5 15 9.83579 15 10.25L15 13.75C15 14.4404 14.4404 15 13.75 15H6.25C5.55964 15 5 14.4404 5 13.75V6.25C5 5.55964 5.55965 5 6.25 5L9.75 5C10.1642 5 10.5 4.66421 10.5 4.25C10.5 3.83579 10.1642 3.5 9.75 3.5H6.25C4.73122 3.5 3.5 4.73122 3.5 6.25V13.75C3.5 15.2688 4.73122 16.5 6.25 16.5H13.75C15.2688 16.5 16.5 15.2688 16.5 13.75V10.25Z" fill="#4A4A4A"/>
<path d="M13.75 3C13.3358 3 13 3.33579 13 3.75C13 4.16421 13.3358 4.5 13.75 4.5H14.4393L8.21967 10.7197C7.92678 11.0126 7.92678 11.4874 8.21967 11.7803C8.51256 12.0732 8.98744 12.0732 9.28033 11.7803L15.5 5.56066V6.25C15.5 6.66421 15.8358 7 16.25 7C16.6642 7 17 6.66421 17 6.25V3.75C17 3.33579 16.6642 3 16.25 3H13.75Z" fill="#4A4A4A"/>
</svg>
