<svg width="20" height="20" viewBox="0 0 20 20" fill="none" xmlns="http://www.w3.org/2000/svg">
<g clip-path="url(#clip0_3352_112)">
<path fill-rule="evenodd" clip-rule="evenodd" d="M6.11536 10.8064L1.72796 7.13421C1.04301 6.56093 1.39606 5.4456 2.28613 5.37087L16.469 4.18019C17.3122 4.1094 17.8567 5.05256 17.3738 5.74738L9.25121 17.4347C8.74146 18.1682 7.59903 17.9163 7.44502 17.0365L6.45855 11.4008C6.41787 11.1684 6.29631 10.9578 6.11536 10.8064ZM7.07811 9.65609L3.62263 6.76395L13.7809 5.91114L7.164 9.73138C7.136 9.70568 7.10737 9.68058 7.07811 9.65609ZM7.91391 11.0305C7.92213 11.0675 7.92953 11.1047 7.93609 11.1422L8.71302 15.5808L14.5302 7.21055L7.91391 11.0305Z" fill="#4A4A4A"/>
</g>
<defs>
<clipPath id="clip0_3352_112">
<rect width="20" height="20" fill="white"/>
</clipPath>
</defs>
</svg>
