<svg width="20" height="20" viewBox="0 0 20 20" fill="none" xmlns="http://www.w3.org/2000/svg">
<path fill-rule="evenodd" clip-rule="evenodd" d="M15.8423 4.17499C15.4944 3.82709 15.0814 3.55112 14.6269 3.36283C14.1724 3.17455 13.6853 3.07764 13.1933 3.07764C12.7013 3.07764 12.2141 3.17455 11.7596 3.36283C11.3051 3.55112 10.8921 3.82709 10.5443 4.17499L8.42828 6.29199C8.07926 6.64105 7.80258 7.05557 7.61413 7.5118C7.42567 7.96802 7.32914 8.45696 7.33007 8.95057C7.331 9.44418 7.42937 9.93275 7.61954 10.3883C7.80971 10.8438 8.08795 11.2573 8.43828 11.605L8.77628 11.941C8.84571 12.0124 8.92865 12.0692 9.02028 12.1082C9.1119 12.1471 9.21037 12.1675 9.30993 12.168C9.4095 12.1685 9.50817 12.1492 9.6002 12.1112C9.69223 12.0732 9.77576 12.0172 9.84593 11.9466C9.91611 11.876 9.97151 11.792 10.0089 11.6998C10.0463 11.6075 10.065 11.5087 10.0638 11.4091C10.0626 11.3096 10.0416 11.2112 10.0021 11.1199C9.96248 11.0285 9.9051 10.9459 9.83328 10.877L9.49428 10.54C9.28426 10.3313 9.11751 10.0832 9.00356 9.80994C8.88961 9.53667 8.83072 9.2436 8.83025 8.94753C8.82979 8.65146 8.88776 8.35821 9.00085 8.08458C9.11394 7.81096 9.27992 7.56235 9.48928 7.35299L11.6053 5.23599C12.027 4.81523 12.5985 4.57921 13.1943 4.57987C13.79 4.58052 14.361 4.8178 14.7818 5.23949C15.2025 5.66119 15.4386 6.23276 15.4379 6.82847C15.4372 7.42418 15.2 7.99523 14.7783 8.41599L13.7263 9.46299C13.5852 9.60329 13.5056 9.7939 13.505 9.99287C13.5045 10.1918 13.583 10.3829 13.7233 10.524C13.8636 10.6651 14.0542 10.7447 14.2532 10.7452C14.4521 10.7458 14.6432 10.6673 14.7843 10.527L15.8363 9.47999C16.1856 9.1324 16.463 8.7193 16.6524 8.26435C16.8418 7.8094 16.9396 7.32155 16.9401 6.82874C16.9407 6.33593 16.844 5.84786 16.6556 5.39248C16.4672 4.9371 16.1908 4.52337 15.8423 4.17499ZM4.17828 15.845C4.52651 16.1933 4.93995 16.4696 5.39499 16.6581C5.85002 16.8467 6.33774 16.9437 6.83028 16.9437C7.32282 16.9437 7.81053 16.8467 8.26557 16.6581C8.7206 16.4696 9.13405 16.1933 9.48228 15.845L11.6033 13.724C12.3064 13.0207 12.7015 12.067 12.7015 11.0725C12.7015 10.078 12.3064 9.12424 11.6033 8.42099L11.2413 8.05899C11.0991 7.92651 10.9111 7.85439 10.7168 7.85782C10.5225 7.86125 10.3371 7.93996 10.1997 8.07737C10.0622 8.21478 9.98353 8.40017 9.9801 8.59447C9.97667 8.78877 10.0488 8.97682 10.1813 9.11899L10.5433 9.48099C10.7522 9.68992 10.9179 9.93796 11.031 10.2109C11.1441 10.4839 11.2023 10.7765 11.2023 11.072C11.2023 11.3675 11.1441 11.6601 11.031 11.933C10.9179 12.206 10.7522 12.4541 10.5433 12.663L8.42128 14.785C8.21234 14.9939 7.9643 15.1597 7.69132 15.2727C7.41834 15.3858 7.12575 15.444 6.83028 15.444C6.5348 15.444 6.24222 15.3858 5.96923 15.2727C5.69625 15.1597 5.44821 14.9939 5.23928 14.785C5.03034 14.5761 4.86461 14.328 4.75154 14.055C4.63846 13.7821 4.58026 13.4895 4.58026 13.194C4.58026 12.8985 4.63846 12.6059 4.75154 12.3329C4.86461 12.06 5.03034 11.8119 5.23928 11.603L6.30928 10.533C6.44984 10.3922 6.52871 10.2013 6.52852 10.0023C6.52833 9.80331 6.44911 9.61256 6.30828 9.47199C6.16745 9.33143 5.97655 9.25256 5.77757 9.25275C5.57859 9.25294 5.38784 9.33216 5.24728 9.47299L4.17828 10.542C3.47511 11.2452 3.08008 12.199 3.08008 13.1935C3.08008 14.188 3.47511 15.1417 4.17828 15.845Z" fill="#7367F0"/>
</svg>
