<svg width="20" height="20" viewBox="0 0 20 20" fill="none" xmlns="http://www.w3.org/2000/svg">
<path fill-rule="evenodd" clip-rule="evenodd" d="M13.875 10.65C13.9892 10.5842 14.0841 10.4895 14.1501 10.3754C14.2161 10.2613 14.2508 10.1318 14.2508 9.99996C14.2508 9.86815 14.2161 9.73866 14.1501 9.62455C14.0841 9.51043 13.9892 9.41572 13.875 9.34996L8.625 6.31996C8.51102 6.25416 8.38174 6.21951 8.25013 6.21948C8.11852 6.21946 7.98922 6.25407 7.87522 6.31983C7.76123 6.3856 7.66654 6.4802 7.60068 6.59415C7.53481 6.70809 7.50009 6.83735 7.5 6.96896V13.031C7.49992 13.1627 7.53451 13.2921 7.6003 13.4061C7.66609 13.5202 7.76076 13.615 7.87479 13.6808C7.98882 13.7467 8.11819 13.7814 8.24988 13.7814C8.38157 13.7815 8.51095 13.7468 8.625 13.681L13.875 10.65ZM9 11.732V8.26796L12 9.99996L9 11.732Z" fill="#7367F0"/>
<path fill-rule="evenodd" clip-rule="evenodd" d="M10 3C9.08075 3 8.1705 3.18106 7.32122 3.53284C6.47194 3.88463 5.70026 4.40024 5.05025 5.05025C4.40024 5.70026 3.88463 6.47194 3.53284 7.32122C3.18106 8.1705 3 9.08075 3 10C3 10.9193 3.18106 11.8295 3.53284 12.6788C3.88463 13.5281 4.40024 14.2997 5.05025 14.9497C5.70026 15.5998 6.47194 16.1154 7.32122 16.4672C8.1705 16.8189 9.08075 17 10 17C11.8565 17 13.637 16.2625 14.9497 14.9497C16.2625 13.637 17 11.8565 17 10C17 8.14348 16.2625 6.36301 14.9497 5.05025C13.637 3.7375 11.8565 3 10 3ZM4.5 10C4.5 8.54131 5.07946 7.14236 6.11091 6.11091C7.14236 5.07946 8.54131 4.5 10 4.5C11.4587 4.5 12.8576 5.07946 13.8891 6.11091C14.9205 7.14236 15.5 8.54131 15.5 10C15.5 11.4587 14.9205 12.8576 13.8891 13.8891C12.8576 14.9205 11.4587 15.5 10 15.5C8.54131 15.5 7.14236 14.9205 6.11091 13.8891C5.07946 12.8576 4.5 11.4587 4.5 10Z" fill="#7367F0"/>
</svg>
